<svg xmlns="http://www.w3.org/2000/svg" xmlns:xlink="http://www.w3.org/1999/xlink" width="617" height="189" version="1.1" style=""><rect id="backgroundrect" width="100%" height="100%" x="0" y="0" fill="none" stroke="none"/>

    <g class="currentLayer" style=""><title>Layer 1</title><g id="surface1" fill="#fff" class="">
        <path d="M435.31640625,42.74609375 C435.31640625,47.8359375 435.3125,52.9296875 435.3203125,58.01953125 C435.3203125,59.171875 435.203125,59.05859375 436.3203125,59.0625 C438.28515625,59.06640625 440.25390625,59.05078125 442.21875,59.06640625 C445.890625,59.09375 449.5625,59.03125 453.2109375,58.546875 C455.13671875,58.29296875 457.046875,57.9453125 458.8203125,57.12890625 C463.109375,55.1640625 466.23046875,52.1015625 467.453125,47.4375 C468.3671875,43.953125 468.46484375,40.40234375 467.69921875,36.87109375 C467.11328125,34.171875 465.8828125,31.8203125 463.65625,30.08203125 C461.890625,28.703125 459.8828125,27.8515625 457.734375,27.30859375 C455.05078125,26.625 452.30078125,26.49609375 449.55859375,26.453125 C445.07421875,26.38671875 440.58984375,26.41015625 436.109375,26.3984375 C435.9921875,26.3984375 435.87890625,26.40625 435.76171875,26.3984375 C435.41796875,26.37109375 435.296875,26.546875 435.31640625,26.8671875 C435.328125,27.0703125 435.31640625,27.2734375 435.31640625,27.4765625 zM517.3359375,125.51953125 L516.359375,125.51953125 C504.5546875,125.51953125 492.75390625,125.51171875 480.953125,125.53125 C480.3359375,125.53125 479.9609375,125.33984375 479.59375,124.85546875 C469.50390625,111.5234375 459.39453125,98.20703125 449.29296875,84.890625 C448.41796875,83.73828125 447.53125,82.59765625 446.671875,81.43359375 C446.4296875,81.1015625 446.18359375,80.93359375 445.75,80.9375 C442.484375,80.953125 439.2109375,80.94140625 435.9453125,80.94921875 C435.3359375,80.94921875 435.3359375,80.96484375 435.3203125,81.58203125 C435.3125,81.78515625 435.31640625,81.98828125 435.31640625,82.19140625 C435.31640625,96.27734375 435.31640625,110.3671875 435.31640625,124.45703125 C435.31640625,125.67578125 435.421875,125.515625 434.24609375,125.515625 C424.84375,125.51953125 415.44140625,125.51953125 406.0390625,125.51953125 C405.89453125,125.51953125 405.75,125.51953125 405.60546875,125.51953125 C404.9609375,125.5 404.95703125,125.5 404.94140625,124.8203125 C404.9375,124.6484375 404.94140625,124.4765625 404.94140625,124.30078125 C404.94140625,84.61328125 404.94140625,44.921875 404.9453125,5.23046875 C404.9453125,3.84375 404.7578125,4.0234375 406.125,4.0234375 C421.51171875,4.01953125 436.90234375,4.02734375 452.29296875,4.015625 C456.28515625,4.015625 460.27734375,4.0703125 464.25390625,4.41015625 C468.578125,4.77734375 472.88671875,5.26953125 477.03515625,6.65234375 C482.90625,8.609375 488.03515625,11.7265625 492.203125,16.35546875 C496.19921875,20.796875 498.51171875,25.98046875 499.1875,31.9140625 C499.83984375,37.66015625 499.55078125,43.34765625 498.234375,48.97265625 C496.71875,55.44921875 493.3359375,60.8359375 488.59375,65.4296875 C485.2890625,68.63671875 481.55859375,71.2421875 477.47265625,73.3515625 C477.16796875,73.5078125 476.828125,73.61328125 476.51171875,73.93359375 C490.07421875,91.06640625 503.6328125,108.203125 517.3359375,125.51953125 " id="svg_1"/>
        <path d="M519.65234375,103.92578125 L519.65234375,90.47265625 C519.65234375,90.26953125 519.66015625,90.06640625 519.65234375,89.86328125 C519.640625,89.58203125 519.75390625,89.4375 520.05078125,89.44140625 C520.74609375,89.44921875 521.44140625,89.45703125 522.13671875,89.4375 C522.50390625,89.42578125 522.7109375,89.67578125 522.94921875,89.875 C527.7578125,93.87109375 533,97.1796875 538.7109375,99.73828125 C544.46484375,102.3203125 550.4453125,104.14453125 556.69921875,105.0078125 C560.92578125,105.59375 565.1640625,105.69140625 569.4140625,105.1171875 C571.41796875,104.84375 573.42578125,104.59765625 575.37109375,104.01953125 C578.22265625,103.171875 580.75,101.78515625 582.82421875,99.61328125 C584.2421875,98.12890625 584.99609375,96.35546875 585.23828125,94.34765625 C585.37890625,93.19921875 585.390625,92.0390625 585.18359375,90.890625 C584.7890625,88.6953125 583.6875,86.90625 581.9765625,85.48828125 C579.3671875,83.33203125 576.35546875,81.97265625 573.1015625,81.11328125 C567.87890625,79.7265625 562.5859375,78.64453125 557.31640625,77.453125 C551.66796875,76.17578125 546.13671875,74.51171875 540.87109375,72.06640625 C537.5,70.5 534.3203125,68.625 531.44140625,66.2578125 C526.33984375,62.0625 523.1640625,56.67578125 521.578125,50.31640625 C520.44921875,45.78515625 520.12890625,41.17578125 520.546875,36.53515625 C521.3203125,27.921875 525.07421875,20.79296875 531.51171875,15.06640625 C537.59375,9.66015625 544.68359375,6.1328125 552.515625,4.046875 C557.2265625,2.79296875 562.02734375,2.15234375 566.89453125,1.90625 C571.125,1.69140625 575.33984375,1.80078125 579.546875,2.16015625 C590.328125,3.08984375 600.79296875,5.375 610.796875,9.57421875 C610.90625,9.62109375 611.00390625,9.68359375 611.1171875,9.7109375 C611.546875,9.8203125 611.75,10.078125 611.6875,10.53125 C611.66796875,10.671875 611.68359375,10.8203125 611.68359375,10.96484375 C611.68359375,19.52734375 611.6875,28.08984375 611.68359375,36.65234375 C611.68359375,37.8671875 611.7890625,37.625 610.61328125,37.7265625 C609.46484375,37.82421875 608.625,37.41015625 607.73046875,36.71484375 C599.9609375,30.65625 591.2578125,26.59765625 581.56640625,24.7421875 C577.48828125,23.9609375 573.3515625,23.8046875 569.2109375,24.03125 C565.4765625,24.23828125 561.90625,25.1171875 558.5234375,26.73828125 C556.5546875,27.68359375 554.9296875,29.03125 553.55078125,30.7109375 C550.3359375,34.62109375 550.9296875,41.4453125 555.96484375,44.4921875 C557.8359375,45.62109375 559.84765625,46.40625 561.9140625,47.08203125 C565.296875,48.1875 568.78515625,48.890625 572.24609375,49.6875 C577.65234375,50.9296875 583.078125,52.08203125 588.35546875,53.828125 C592.703125,55.265625 596.94921875,56.9140625 600.91015625,59.24609375 C603.6640625,60.8671875 606.20703125,62.76171875 608.453125,65.046875 C612.078125,68.734375 614.38671875,73.13671875 615.5,78.1640625 C617.00390625,84.9765625 616.9375,91.77734375 615.03515625,98.50390625 C613.12890625,105.2421875 609.296875,110.7578125 604.01171875,115.296875 C598.37890625,120.1328125 591.859375,123.26171875 584.734375,125.1953125 C580.76171875,126.2734375 576.71875,126.9296875 572.625,127.32421875 C567.484375,127.81640625 562.33984375,127.76953125 557.1953125,127.57421875 C546.09765625,127.15625 535.48046875,124.5234375 525.1484375,120.58984375 C523.5859375,119.9921875 522.05078125,119.31640625 520.484375,118.71875 C519.86328125,118.484375 519.62109375,118.17578125 519.62890625,117.46484375 C519.671875,112.953125 519.65234375,108.4375 519.65234375,103.92578125 " id="svg_2"/>
        <path d="M322.42578125,78.625 L347.19921875,78.625 C343.08203125,65.3359375 338.984375,52.11328125 334.890625,38.89453125 C334.83984375,38.89453125 334.7890625,38.890625 334.7421875,38.890625 C330.6484375,52.09765625 326.5546875,65.3046875 322.42578125,78.625 M277.66796875,125.51953125 C277.58203125,125.046875 277.76171875,124.765625 277.859375,124.47265625 C282.26953125,111.4140625 286.68359375,98.359375 291.09375,85.3046875 C298.84375,62.3671875 306.58984375,39.43359375 314.3359375,16.49609375 C315.65234375,12.609375 316.96484375,8.72265625 318.28125,4.8359375 C318.55859375,4.0234375 318.5625,4.01953125 319.4140625,4.01953125 C329.9453125,4.01953125 340.47265625,4.01953125 351.00390625,4.01953125 C351.86328125,4.01953125 351.86328125,4.0234375 352.1328125,4.82421875 C359.4921875,26.609375 366.85546875,48.3984375 374.21484375,70.18359375 C379.94140625,87.125 385.6640625,104.06640625 391.390625,121.0078125 C391.8515625,122.37890625 392.31640625,123.74609375 392.77734375,125.11328125 C392.8125,125.21875 392.8203125,125.33203125 392.8359375,125.44140625 C392.53125,125.57421875 392.23828125,125.515625 391.95703125,125.515625 C382.09375,125.51953125 372.23046875,125.51953125 362.36328125,125.515625 C361.47265625,125.515625 361.54296875,125.68359375 361.2421875,124.69921875 C358.8984375,117.05078125 356.55078125,109.3984375 354.203125,101.75 C354.14453125,101.5546875 354.07421875,101.3671875 354.03125,101.16796875 C353.9609375,100.83203125 353.77734375,100.671875 353.421875,100.703125 C353.25390625,100.72265625 353.078125,100.70703125 352.90234375,100.70703125 L316.71484375,100.70703125 C316.5703125,100.70703125 316.42578125,100.72265625 316.28125,100.703125 C315.85546875,100.6484375 315.68359375,100.85546875 315.5703125,101.25 C315.03515625,103.05078125 314.4765625,104.84375 313.92578125,106.640625 C312.0703125,112.6875 310.22265625,118.73828125 308.359375,124.78515625 C308.09765625,125.6328125 308.2109375,125.515625 307.35546875,125.515625 C297.6953125,125.51953125 288.03125,125.51953125 278.37109375,125.51953125 zM277.66796875,125.51953125 " id="svg_3"/>
        <path d="M193.484375,64.77734375 C193.484375,44.90625 193.484375,25.03125 193.48828125,5.15625 C193.48828125,3.8515625 193.30859375,4.0234375 194.6484375,4.0234375 C221.00390625,4.01953125 247.359375,4.01953125 273.71484375,4.0234375 C275.03515625,4.0234375 274.8515625,3.859375 274.85546875,5.17578125 C274.859375,12.12109375 274.85546875,19.0625 274.85546875,26.0078125 C274.85546875,26.1796875 274.859375,26.3515625 274.85546875,26.52734375 C274.83984375,27.17578125 274.83984375,27.17578125 274.16796875,27.19140625 C273.93359375,27.19921875 273.703125,27.1953125 273.47265625,27.1953125 C257.328125,27.1953125 241.1875,27.19140625 225.046875,27.1953125 C223.6328125,27.1953125 223.87109375,27.09375 223.8671875,28.4140625 C223.859375,35.2421875 223.86328125,42.06640625 223.86328125,48.89453125 C223.86328125,49.0703125 223.859375,49.2421875 223.86328125,49.4140625 C223.87890625,50.06640625 223.8828125,50.0703125 224.546875,50.0859375 C224.75,50.08984375 224.953125,50.0859375 225.15625,50.0859375 C239.99609375,50.0859375 254.8359375,50.0859375 269.67578125,50.0859375 C270.859375,50.0859375 270.75,49.94921875 270.75,51.1484375 C270.75390625,58.203125 270.75390625,65.265625 270.75390625,72.32421875 C270.75390625,73.42578125 270.8203125,73.29296875 269.76953125,73.29296875 C254.83984375,73.29296875 239.9140625,73.29296875 224.98828125,73.296875 C223.7109375,73.296875 223.8671875,73.1484375 223.8671875,74.38671875 C223.86328125,91.078125 223.86328125,107.76953125 223.86328125,124.46484375 C223.86328125,125.67578125 223.98046875,125.515625 222.79296875,125.515625 C213.390625,125.51953125 203.98828125,125.51953125 194.5859375,125.51953125 C194.44140625,125.51953125 194.296875,125.51953125 194.15234375,125.515625 C193.5,125.50390625 193.5,125.50390625 193.484375,124.8359375 C193.48046875,124.6328125 193.484375,124.4296875 193.484375,124.2265625 zM193.484375,64.77734375 " id="svg_4"/>
        <path d="M132.44140625,125.421875 L109.44140625,125.421875 C109.32421875,125.421875 109.2109375,125.4140625 109.09375,125.42578125 C108.67578125,125.46484375 108.52734375,125.30078125 108.59375,124.87109375 C108.734375,123.8984375 108.84375,122.921875 108.96875,121.9453125 C109.59375,117.0703125 110.21875,112.1953125 110.84765625,107.3203125 C111.51171875,102.16015625 112.1875,97 112.84765625,91.8359375 C113.453125,87.10546875 114.05078125,82.37109375 114.65625,77.640625 C115.2578125,72.9375 115.86328125,68.234375 116.46875,63.53125 C116.84375,60.6328125 117.21484375,57.73828125 117.5859375,54.83984375 C117.73046875,53.71484375 117.6171875,52.5859375 117.67578125,51.4609375 C117.69921875,50.96875 117.359375,50.8203125 117.0546875,50.61328125 C114.4921875,48.8828125 112.26953125,46.7890625 110.4140625,44.3125 C107.19140625,40.01171875 105.359375,35.17578125 104.921875,29.82421875 C103.8203125,16.26953125 112.9921875,3.07421875 127.59765625,0.44921875 C143.22265625,-2.35546875 157.34375,8.29296875 159.84375,23.26953125 C161.5390625,33.41796875 156.9765625,44.49609375 148.23046875,50.40625 C147.6328125,50.8125 147.44921875,51.23828125 147.42578125,51.94921875 C147.3125,54.98046875 147.8515625,57.9453125 148.21875,60.921875 C148.76171875,65.3125 149.3359375,69.69921875 149.8984375,74.0859375 C150.5078125,78.8203125 151.12109375,83.55078125 151.7265625,88.28125 C152.2734375,92.52734375 152.8125,96.7734375 153.35546875,101.015625 C153.91015625,105.34765625 154.46875,109.67578125 155.02734375,114.0078125 C155.48828125,117.62109375 155.953125,121.234375 156.4140625,124.84765625 C156.484375,125.40234375 156.48046875,125.41796875 155.875,125.41796875 C153.58984375,125.421875 151.3046875,125.40625 149.01953125,125.40625 C143.4921875,125.40625 137.96875,125.40625 132.44140625,125.40625 zM132.44140625,125.421875 " id="svg_5"/>
        <path d="M0.00390625,64.79296875 C0.00390625,44.91796875 0,25.046875 0.00390625,5.171875 C0.00390625,3.8359375 -0.14453125,4.0234375 1.15625,4.0234375 C10.6171875,4.01953125 20.07421875,4.01953125 29.53515625,4.01953125 C30.59765625,4.0234375 30.5,3.89453125 30.5,5.00390625 C30.50390625,37.0234375 30.50390625,69.046875 30.50390625,101.0703125 C30.50390625,102.30078125 30.50390625,102.30078125 31.75390625,102.30078125 L80.17578125,102.30078125 C81.20703125,102.3046875 81.1171875,102.22265625 81.1171875,103.23046875 C81.1171875,110.34765625 81.1171875,117.46484375 81.1171875,124.578125 L81.1171875,124.66796875 C81.12109375,125.5625 81.1640625,125.51953125 80.26953125,125.51953125 C53.80078125,125.515625 27.33203125,125.51953125 0.86328125,125.515625 C0.71875,125.515625 0.57421875,125.51171875 0.4296875,125.515625 C0.14453125,125.52734375 0.00390625,125.39453125 0.00390625,125.10546875 C0.0078125,124.84375 0.00390625,124.5859375 0.00390625,124.32421875 zM0.00390625,64.79296875 " id="svg_6"/>
        <path d="M603.80078125,164.43359375 L603.80078125,158.37109375 C603.80078125,158.33984375 603.80078125,158.3125 603.80078125,158.28515625 C603.78515625,157.62109375 603.75,157.5546875 603.125,157.36328125 C602.15625,157.06640625 601.1640625,156.92578125 600.140625,156.92578125 C597.52734375,156.91796875 595.8125,158.41015625 594.9609375,160.5390625 C594.04296875,162.84375 594.17578125,165.23828125 594.36328125,167.6328125 C594.4296875,168.49609375 594.66015625,169.3359375 595.00390625,170.140625 C595.546875,171.421875 596.4921875,172.2421875 597.84765625,172.58203125 C599.796875,173.06640625 601.5546875,172.58203125 603.21484375,171.54296875 C603.66015625,171.265625 603.8203125,170.93359375 603.8125,170.4140625 C603.78515625,168.421875 603.80078125,166.4296875 603.80078125,164.43359375 M603.80078125,176.05078125 C603.30859375,176.1484375 603.08203125,176.42578125 602.8203125,176.6328125 C601.33203125,177.80078125 599.78515625,178.86328125 597.8828125,179.234375 C593.78125,180.0390625 590.1953125,178.84375 587.79296875,175.05859375 C586.54296875,173.08984375 585.9375,170.90625 585.609375,168.625 C585.37109375,166.9609375 585.3515625,165.28125 585.4453125,163.60546875 C585.625,160.265625 586.5859375,157.18359375 588.7109375,154.546875 C590.61328125,152.19140625 593.046875,150.79296875 596.09765625,150.4921875 C598.50390625,150.2578125 600.7421875,150.75 602.8828125,151.8203125 C603.7890625,152.26953125 603.80078125,152.25390625 603.80078125,151.25 C603.80078125,148.09765625 603.80078125,144.9453125 603.80078125,141.79296875 C603.80078125,141.58984375 603.81640625,141.38671875 603.796875,141.18359375 C603.76953125,140.78515625 603.921875,140.6171875 604.33984375,140.62109375 C606.828125,140.6328125 609.31640625,140.6328125 611.80078125,140.62109375 C612.20703125,140.6171875 612.39453125,140.7578125 612.359375,141.171875 C612.34375,141.34375 612.359375,141.515625 612.359375,141.69140625 C612.359375,153.6640625 612.359375,165.63671875 612.35546875,177.609375 C612.35546875,178.796875 612.46484375,178.68359375 611.29296875,178.6875 C609.0390625,178.69140625 606.78125,178.69140625 604.52734375,178.6875 C603.81640625,178.68359375 603.8125,178.671875 603.80078125,177.96875 C603.79296875,177.36328125 603.80078125,176.7578125 603.80078125,176.05078125 " id="svg_7"/>
        <path d="M569.36328125,161.44140625 C570.890625,161.44140625 572.421875,161.4296875 573.953125,161.4453125 C574.37109375,161.453125 574.51171875,161.296875 574.49609375,160.88671875 C574.46484375,160.16015625 574.3125,159.45703125 574.07421875,158.7734375 C573.5390625,157.2265625 572.47265625,156.26171875 570.84765625,155.984375 C570.33984375,155.89453125 569.8125,155.90625 569.296875,155.91015625 C566.44921875,155.9296875 564.59765625,157.90234375 564.25390625,160.63671875 C564.15625,161.390625 564.20703125,161.43359375 564.94921875,161.4375 C566.41796875,161.4453125 567.890625,161.44140625 569.36328125,161.44140625 M573.5703125,166.6328125 L565.32421875,166.6328125 C565.12109375,166.6328125 564.91796875,166.64453125 564.71484375,166.6328125 C564.328125,166.61328125 564.20703125,166.80859375 564.24609375,167.16796875 C564.44921875,168.99609375 565.1328125,170.57421875 566.6484375,171.69921875 C567.84765625,172.5859375 569.234375,172.9375 570.6875,173.125 C574.5,173.6171875 577.88671875,172.5390625 581.01953125,170.44140625 C581.140625,170.359375 581.25390625,170.265625 581.37890625,170.19921875 C582.09765625,169.8203125 582.46875,170.02734375 582.47265625,170.8203125 C582.4765625,172.703125 582.4609375,174.58203125 582.484375,176.4609375 C582.4921875,176.95703125 582.37109375,177.2265625 581.87109375,177.4296875 C579.0625,178.578125 576.171875,179.28515625 573.12890625,179.40625 C570.453125,179.515625 567.8125,179.3671875 565.23046875,178.640625 C561.8046875,177.6796875 559.05078125,175.80859375 557.29296875,172.63671875 C556.49609375,171.20703125 556.02734375,169.65234375 555.79296875,168.046875 C555.3671875,165.1171875 555.5,162.2109375 556.45703125,159.39453125 C558.06640625,154.671875 561.359375,151.77734375 566.22265625,150.75390625 C569.31640625,150.1015625 572.43359375,150.1171875 575.48046875,151.0859375 C578.66796875,152.09375 580.8125,154.21875 581.9921875,157.33984375 C582.640625,159.0625 582.90625,160.859375 582.9765625,162.68359375 C583.015625,163.72265625 582.9921875,164.765625 582.984375,165.80859375 C582.98046875,166.6171875 582.97265625,166.62890625 582.16015625,166.62890625 C579.296875,166.63671875 576.43359375,166.6328125 573.5703125,166.6328125 " id="svg_8"/>
        <path d="M459.31640625,161.44140625 C460.84375,161.44140625 462.375,161.43359375 463.90625,161.4453125 C464.30859375,161.44921875 464.46875,161.31640625 464.4609375,160.89453125 C464.44140625,160.1640625 464.30078125,159.4609375 464.06640625,158.77734375 C463.515625,157.19140625 462.41015625,156.23828125 460.75390625,155.96484375 C460.328125,155.8984375 459.88671875,155.9140625 459.45703125,155.90625 C456.6328125,155.8515625 454.6328125,157.66796875 454.2109375,160.71875 C454.12109375,161.37890625 454.18359375,161.4375 454.90234375,161.4375 C456.375,161.4453125 457.84375,161.44140625 459.31640625,161.44140625 M463.3046875,166.6328125 L455.32421875,166.6328125 C455.12109375,166.6328125 454.91796875,166.64453125 454.71484375,166.6328125 C454.2734375,166.59765625 454.1640625,166.828125 454.21875,167.21875 C454.546875,169.66015625 455.67578125,171.53515625 458.03515625,172.48046875 C459.80859375,173.1953125 461.67578125,173.34765625 463.5703125,173.19921875 C466.3515625,172.9765625 468.82421875,171.921875 471.11328125,170.375 C471.28125,170.26171875 471.453125,170.140625 471.63671875,170.08203125 C472.19921875,169.90234375 472.4375,170.08203125 472.44140625,170.6796875 C472.44921875,172.671875 472.43359375,174.66796875 472.44921875,176.6640625 C472.453125,177.04296875 472.31640625,177.21875 471.97265625,177.3671875 C469.16015625,178.58203125 466.234375,179.29296875 463.1640625,179.39453125 C460.73046875,179.47265625 458.30859375,179.41015625 455.9296875,178.83203125 C453.4453125,178.2265625 451.203125,177.171875 449.34375,175.359375 C447.453125,173.51171875 446.375,171.24609375 445.89453125,168.6875 C445.359375,165.8125 445.40234375,162.92578125 446.22265625,160.10546875 C447.703125,155.0234375 451.046875,151.8515625 456.23828125,150.7421875 C458.98046875,150.16015625 461.75,150.16015625 464.4921875,150.80859375 C468.734375,151.81640625 471.29296875,154.53125 472.40625,158.6796875 C472.79296875,160.13671875 472.96875,161.62890625 472.953125,163.140625 C472.94140625,164.09375 472.9375,165.046875 472.95703125,166.00390625 C472.96484375,166.40625 472.828125,166.58203125 472.41015625,166.57421875 C471.98046875,166.56640625 471.546875,166.62890625 471.11328125,166.62890625 C468.51171875,166.63671875 465.91015625,166.6328125 463.3046875,166.6328125 " id="svg_9"/>
        <path d="M520.7109375,175.765625 C520.109375,176.22265625 519.68359375,176.5546875 519.24609375,176.87109375 C517.78515625,177.921875 516.29296875,178.90234375 514.48046875,179.26171875 C512.7734375,179.59375 511.08203125,179.58203125 509.41796875,179.1015625 C506.46484375,178.25390625 504.7890625,176.19140625 504.0234375,173.30078125 C503.68359375,172.0078125 503.5390625,170.6796875 503.53515625,169.3515625 C503.515625,163.59375 503.52734375,157.83984375 503.52734375,152.08203125 C503.52734375,151.9375 503.53125,151.79296875 503.52734375,151.6484375 C503.51953125,151.3671875 503.64453125,151.21484375 503.9375,151.21875 C504.109375,151.21875 504.28515625,151.21484375 504.45703125,151.21484375 C506.71484375,151.21484375 508.96875,151.2109375 511.2265625,151.21484375 C512.24609375,151.21484375 512.18359375,151.15625 512.18359375,152.140625 C512.1875,156.94140625 512.1796875,161.74609375 512.203125,166.546875 C512.2109375,167.61328125 512.2734375,168.6875 512.53515625,169.73046875 C512.94921875,171.3828125 513.90625,172.140625 515.6015625,172.27734375 C517.23046875,172.40625 518.671875,171.8984375 520.0703125,171.140625 C520.5625,170.875 520.7265625,170.53125 520.7265625,169.9609375 C520.703125,164.1171875 520.70703125,158.2734375 520.71484375,152.4296875 C520.71484375,151.07421875 520.55078125,151.21875 521.90234375,151.21484375 C524.12890625,151.20703125 526.359375,151.2109375 528.5859375,151.21484375 C529.3359375,151.21875 529.34375,151.2265625 529.34765625,151.98828125 C529.34765625,160.63671875 529.34765625,169.28515625 529.34375,177.9375 C529.34375,178.67578125 529.33203125,178.68359375 528.5625,178.6875 C526.19140625,178.69140625 523.8203125,178.69140625 521.4453125,178.6875 C520.7265625,178.68359375 520.72265625,178.671875 520.71484375,177.96875 C520.703125,177.3046875 520.7109375,176.64453125 520.7109375,175.765625 " id="svg_10"/>
        <path d="M419.953125,173.67578125 C419.953125,172.6640625 419.9453125,171.65234375 419.95703125,170.640625 C419.96484375,169.96484375 420.30078125,169.78125 420.8828125,170.140625 C421.15234375,170.3046875 421.390625,170.5234375 421.65234375,170.703125 C424.60546875,172.73046875 427.83984375,173.79296875 431.45703125,173.45703125 C432.3203125,173.375 433.1484375,173.15234375 433.92578125,172.7109375 C435.078125,172.0546875 435.08203125,170.1328125 433.72265625,169.53125 C432.68359375,169.0703125 431.5859375,168.82421875 430.484375,168.58984375 C428.9609375,168.26953125 427.41796875,168.01953125 425.9453125,167.48046875 C424.3515625,166.89453125 422.89453125,166.1015625 421.765625,164.7890625 C420.9296875,163.81640625 420.44140625,162.68359375 420.21875,161.44140625 C419.80859375,159.16015625 420.109375,157.00390625 421.5,155.0859375 C422.8046875,153.2890625 424.58984375,152.1484375 426.65625,151.4296875 C429.17578125,150.5546875 431.765625,150.30859375 434.42578125,150.4765625 C436.78515625,150.625 439.0546875,151.109375 441.26171875,151.9296875 C441.3984375,151.98046875 441.52734375,152.05078125 441.6640625,152.08984375 C442.1796875,152.2421875 442.375,152.55078125 442.36328125,153.11328125 C442.328125,154.93359375 442.35546875,156.7578125 442.34375,158.578125 C442.34375,158.84375 442.5,159.19921875 442.140625,159.34765625 C441.8203125,159.48046875 441.54296875,159.296875 441.26171875,159.1171875 C440.60546875,158.69921875 439.93359375,158.296875 439.2578125,157.91015625 C437.43359375,156.87890625 435.4453125,156.3984375 433.37109375,156.328125 C432.30078125,156.2890625 431.234375,156.4609375 430.23828125,156.90234375 C429.671875,157.15625 429.171875,157.5 428.921875,158.09765625 C428.5859375,158.90625 428.95703125,159.83203125 429.796875,160.3125 C430.53125,160.73828125 431.3515625,160.94140625 432.1640625,161.12890625 C433.54296875,161.4453125 434.94140625,161.68359375 436.3125,162.0234375 C437.71875,162.3671875 439.078125,162.85546875 440.30078125,163.671875 C442.19921875,164.9375 443.25,166.6875 443.4609375,168.98046875 C443.81640625,172.81640625 442.1875,175.56640625 438.93359375,177.4453125 C436.7890625,178.68359375 434.4453125,179.21875 431.984375,179.3828125 C428.59765625,179.6171875 425.30078125,179.1953125 422.0859375,178.12109375 C421.53515625,177.9375 421.0078125,177.69921875 420.46875,177.5 C420.09375,177.36328125 419.93359375,177.12890625 419.9453125,176.71484375 C419.97265625,175.703125 419.953125,174.69140625 419.953125,173.67578125 " id="svg_11"/>
        <path d="M176.32421875,163.8203125 C176.32421875,161.59375 176.2890625,159.3671875 176.34375,157.140625 C176.359375,156.4296875 176.08984375,156.12109375 175.4765625,155.86328125 C173.9921875,155.2421875 172.45703125,154.87109375 170.86328125,154.75 C169.66796875,154.66015625 168.49609375,154.83984375 167.390625,155.3203125 C165.265625,156.23828125 164.08203125,157.95703125 163.421875,160.09375 C162.76953125,162.1953125 162.75,164.35546875 162.88671875,166.52734375 C162.96484375,167.77734375 163.19140625,168.99609375 163.625,170.1640625 C164.5546875,172.66015625 166.37890625,173.94140625 169.05078125,173.97265625 C171.54296875,174.0078125 173.7421875,173.140625 175.7734375,171.7578125 C176.203125,171.46484375 176.33984375,171.1015625 176.33203125,170.58984375 C176.3125,168.3359375 176.32421875,166.078125 176.32421875,163.8203125 M176.375,152.390625 C176.421875,152.19921875 176.46875,152.03125 176.50390625,151.86328125 C176.578125,151.48828125 176.79296875,151.35546875 177.1796875,151.36328125 C178.25,151.38671875 179.3203125,151.390625 180.390625,151.3671875 C180.85546875,151.35546875 181.015625,151.55078125 180.97265625,151.984375 C180.95703125,152.125 180.97265625,152.2734375 180.97265625,152.41796875 C180.97265625,160.25390625 180.96875,168.09375 180.97265625,175.9296875 C180.9765625,177.96875 180.75,179.96484375 180.13671875,181.91015625 C178.921875,185.76953125 176.25390625,187.953125 172.3515625,188.7265625 C169.234375,189.34375 166.140625,189.08203125 163.05859375,188.46875 C162.40625,188.33984375 161.765625,188.1640625 161.1171875,188.0234375 C160.77734375,187.953125 160.64453125,187.765625 160.64453125,187.41796875 C160.65625,186.00390625 160.6484375,184.58984375 160.6484375,183.14453125 C161.0625,183.0390625 161.359375,183.2421875 161.66796875,183.3515625 C164.23828125,184.265625 166.85546875,184.9765625 169.6171875,184.8828125 C171.0703125,184.8359375 172.4765625,184.55078125 173.75390625,183.77734375 C174.71484375,183.19921875 175.3515625,182.37109375 175.75390625,181.34765625 C176.07421875,180.53515625 176.2734375,179.69140625 176.28515625,178.81640625 C176.30078125,177.69140625 176.2890625,176.5703125 176.2890625,175.453125 C175.93359375,175.33203125 175.7890625,175.609375 175.59765625,175.7578125 C174.1328125,176.875 172.5625,177.76171875 170.7109375,178.0625 C168.921875,178.35546875 167.140625,178.3828125 165.38671875,177.8828125 C162.3828125,177.01953125 160.453125,174.96875 159.28125,172.1640625 C158.1640625,169.49609375 157.95703125,166.67578125 158.05078125,163.82421875 C158.140625,161.03125 158.80078125,158.38671875 160.28515625,156 C162.5625,152.33203125 165.8671875,150.48828125 170.19921875,150.58203125 C172.1328125,150.62109375 173.95703125,151.15234375 175.65625,152.1015625 C175.8515625,152.21484375 176.03515625,152.3671875 176.375,152.390625 " id="svg_12"/>
        <path d="M276.3515625,172.27734375 C276.65234375,171.7890625 276.70703125,171.41796875 276.81640625,171.06640625 C278.75,164.7421875 280.6875,158.41796875 282.62890625,152.08984375 C282.84765625,151.3828125 282.85546875,151.37890625 283.57421875,151.375 C284.4140625,151.3671875 285.25390625,151.39453125 286.08984375,151.36328125 C286.546875,151.3515625 286.75,151.52734375 286.8828125,151.96484375 C287.60546875,154.33984375 288.36328125,156.70703125 289.109375,159.07421875 C290.43359375,163.29296875 291.7578125,167.5078125 293.08203125,171.72265625 C293.125,171.859375 293.1328125,172.01171875 293.37109375,172.140625 C293.5703125,171.2421875 293.76953125,170.37109375 293.95703125,169.5 C295.19140625,163.7109375 296.42578125,157.921875 297.6640625,152.1328125 C297.82421875,151.37890625 297.83203125,151.375 298.6328125,151.375 C299.87109375,151.37109375 301.11328125,151.375 302.40234375,151.375 C302.44921875,152.02734375 302.2109375,152.5625 302.07421875,153.1015625 C300.01171875,161.28125 297.9375,169.453125 295.86328125,177.625 C295.59375,178.6875 295.6015625,178.6875 294.5234375,178.6875 C293.68359375,178.6875 292.84375,178.69140625 292.0078125,178.6875 C291.2890625,178.68359375 291.28125,178.6796875 291.05859375,177.9765625 C289.875,174.23046875 288.69921875,170.48046875 287.51171875,166.734375 C286.58984375,163.81640625 285.65625,160.90234375 284.70703125,157.92578125 C284.3828125,158.18359375 284.3671875,158.54296875 284.2734375,158.84375 C282.296875,165.09375 280.33203125,171.3515625 278.36328125,177.60546875 C278.34765625,177.66015625 278.33984375,177.71875 278.3203125,177.7734375 C277.98046875,178.703125 278.23046875,178.6875 277.07421875,178.6875 C276.23828125,178.6875 275.3984375,178.69140625 274.55859375,178.6875 C273.75390625,178.68359375 273.75,178.68359375 273.54296875,177.875 C272.30859375,173.0625 271.078125,168.25 269.84765625,163.4375 C268.90625,159.74609375 267.9609375,156.05078125 267.01953125,152.359375 C267.01171875,152.328125 267,152.30078125 266.99609375,152.2734375 C266.76953125,151.40625 266.78515625,151.37890625 267.64453125,151.375 C268.76953125,151.3671875 269.8984375,151.390625 271.02734375,151.36328125 C271.4609375,151.35546875 271.640625,151.51953125 271.734375,151.93359375 C272.88671875,157.05859375 274.0546875,162.18359375 275.21875,167.30859375 C275.58203125,168.91015625 275.94921875,170.515625 276.3515625,172.27734375 " id="svg_13"/>
        <path d="M499.7109375,156.3046875 C499.7109375,157.28515625 499.71875,158.26953125 499.70703125,159.25390625 C499.703125,159.5 499.82421875,159.84375 499.54296875,159.96484375 C499.19921875,160.109375 498.80078125,160.1171875 498.47265625,159.859375 C498.1328125,159.58984375 497.81640625,159.29296875 497.4765625,159.0234375 C495.515625,157.47265625 493.33984375,156.53515625 490.77734375,156.6015625 C488.0703125,156.671875 485.96484375,158.09375 484.94140625,160.62109375 C484.58984375,161.484375 484.33203125,162.37890625 484.26171875,163.30078125 C484.12890625,165.00390625 484.10546875,166.703125 484.55078125,168.3828125 C485.28515625,171.15625 487.390625,173.0625 490.5625,173.26171875 C493.453125,173.4453125 495.97265625,172.55078125 498.046875,170.4921875 C498.16796875,170.3671875 498.2890625,170.24609375 498.421875,170.1328125 C498.75,169.85546875 499.1484375,169.91015625 499.49609375,170.01171875 C499.86328125,170.1171875 499.703125,170.50390625 499.703125,170.765625 C499.71875,172.703125 499.6953125,174.640625 499.72265625,176.578125 C499.73046875,177.109375 499.57421875,177.38671875 499.06640625,177.6171875 C496.58984375,178.75390625 494.0078125,179.44140625 491.28125,179.4609375 C488.67578125,179.484375 486.0859375,179.21484375 483.625,178.2578125 C479.53125,176.66796875 476.90625,173.75 475.859375,169.48046875 C475.05078125,166.1875 475.078125,162.87109375 476.109375,159.640625 C477.359375,155.7109375 479.9609375,152.94921875 483.87109375,151.57421875 C488.953125,149.79296875 493.96875,150.07421875 498.90234375,152.2265625 C499.53515625,152.5 499.7734375,152.84375 499.7265625,153.53125 C499.6640625,154.44921875 499.7109375,155.37890625 499.7109375,156.3046875 " id="svg_14"/>
        <path d="M137.21484375,164.171875 C137.21484375,161.7734375 137.19921875,159.37109375 137.22265625,156.97265625 C137.2265625,156.46875 137.07421875,156.21484375 136.6015625,155.99609375 C134.63671875,155.08984375 132.58984375,154.7265625 130.44140625,154.8671875 C129.41796875,154.93359375 128.45703125,155.2109375 127.57421875,155.7421875 C125.75,156.8359375 124.76953125,158.52734375 124.2109375,160.5078125 C123.57421875,162.73828125 123.56640625,165.0234375 123.73046875,167.3046875 C123.82421875,168.59765625 124.0546875,169.8828125 124.53125,171.109375 C124.91015625,172.0859375 125.3828125,173 126.1875,173.7109375 C127.73828125,175.078125 129.578125,175.22265625 131.4921875,174.9296875 C133.4296875,174.6328125 135.0625,173.65625 136.62109375,172.5234375 C137.05859375,172.203125 137.234375,171.84375 137.2265625,171.28515625 C137.1953125,168.9140625 137.21484375,166.54296875 137.21484375,164.171875 M137.21484375,175.98046875 C136.56640625,176.484375 136.078125,176.875 135.578125,177.25390625 C133.703125,178.6796875 131.58984375,179.484375 129.23046875,179.484375 C125.4609375,179.484375 122.63671875,177.8046875 120.8359375,174.48046875 C119.74609375,172.46875 119.21875,170.28515625 118.99609375,168.0234375 C118.828125,166.29296875 118.796875,164.56640625 118.98046875,162.83203125 C119.359375,159.23828125 120.6015625,156.02734375 123.25,153.49609375 C125.66796875,151.18359375 128.58984375,150.30078125 131.92578125,150.6484375 C133.56640625,150.81640625 135.07421875,151.33203125 136.53515625,152.0546875 C136.7109375,152.140625 136.87109375,152.296875 137.16015625,152.2109375 C137.26171875,151.9453125 137.2109375,151.625 137.2109375,151.32421875 C137.21484375,148.11328125 137.21484375,144.90234375 137.21484375,141.69140625 C137.21484375,141.48828125 137.22265625,141.2890625 137.21484375,141.0859375 C137.19921875,140.75 137.35546875,140.62109375 137.6796875,140.625 C138.92578125,140.62890625 140.16796875,140.62890625 141.4140625,140.625 C141.75,140.62109375 141.87890625,140.78515625 141.8671875,141.10546875 C141.859375,141.3046875 141.8671875,141.5078125 141.8671875,141.7109375 C141.8671875,153.68359375 141.8671875,165.65625 141.8671875,177.62890625 C141.8671875,178.796875 141.9609375,178.68359375 140.77734375,178.6875 C139.87890625,178.69140625 138.984375,178.69140625 138.0859375,178.6875 C137.22265625,178.68359375 137.21875,178.6796875 137.21484375,177.8515625 C137.2109375,177.3046875 137.21484375,176.75390625 137.21484375,175.98046875 " id="svg_15"/>
        <path d="M379.73046875,164.1796875 C379.73046875,161.78125 379.7109375,159.37890625 379.7421875,156.984375 C379.75,156.43359375 379.55078125,156.1640625 379.05859375,155.94921875 C377.08984375,155.078125 375.04296875,154.70703125 372.8984375,154.87109375 C371.84375,154.953125 370.85546875,155.25 369.96484375,155.83203125 C368.19921875,156.9921875 367.2109375,158.6875 366.71484375,160.6796875 C365.9765625,163.64453125 366.01171875,166.625 366.640625,169.60546875 C366.75390625,170.140625 366.90625,170.66796875 367.09765625,171.18359375 C368.3359375,174.46484375 370.81640625,175.3984375 373.9375,174.94921875 C375.83984375,174.671875 377.47265625,173.75390625 379.0078125,172.62890625 C379.51953125,172.25390625 379.7578125,171.86328125 379.74609375,171.19921875 C379.703125,168.859375 379.73046875,166.51953125 379.73046875,164.1796875 M379.65625,152.23046875 C379.78515625,151.90234375 379.7265625,151.578125 379.7265625,151.265625 C379.73046875,148.11328125 379.73046875,144.9609375 379.73046875,141.80859375 C379.73046875,141.60546875 379.75,141.40234375 379.7265625,141.19921875 C379.67578125,140.7265625 379.91796875,140.61328125 380.33984375,140.6171875 C381.5,140.63671875 382.65625,140.640625 383.8125,140.6171875 C384.28125,140.609375 384.4296875,140.80859375 384.390625,141.23828125 C384.375,141.3828125 384.38671875,141.52734375 384.38671875,141.671875 C384.38671875,153.6484375 384.38671875,165.625 384.38671875,177.59765625 C384.38671875,178.77734375 384.51171875,178.68359375 383.33203125,178.6875 C382.37890625,178.69140625 381.421875,178.6953125 380.46875,178.6875 C379.74609375,178.6796875 379.7421875,178.67578125 379.73046875,177.98046875 C379.72265625,177.3828125 379.73046875,176.78515625 379.73046875,176.01953125 C379.3125,176.3359375 379.015625,176.54296875 378.73828125,176.77734375 C377.29296875,177.98828125 375.68359375,178.87109375 373.83203125,179.25390625 C369.75,180.09765625 365.66015625,178.6484375 363.45703125,174.62109375 C362.48828125,172.84765625 361.94140625,170.9453125 361.66015625,168.953125 C361.3828125,166.99609375 361.35546875,165.03515625 361.51171875,163.07421875 C361.796875,159.48046875 363.01953125,156.234375 365.6171875,153.6640625 C368.05859375,151.24609375 371.046875,150.2734375 374.4921875,150.65625 C376.1015625,150.83203125 377.58984375,151.31640625 379.0234375,152.03125 C379.19921875,152.1171875 379.359375,152.26171875 379.65625,152.23046875 " id="svg_16"/>
        <path d="M231.16015625,168.23828125 C231.16015625,167.19921875 231.16796875,166.16015625 231.16015625,165.12109375 C231.15234375,164.40234375 231.13671875,164.375 230.4140625,164.453125 C228.4375,164.6640625 226.44921875,164.78125 224.48828125,165.1484375 C223.00390625,165.4296875 221.59375,165.8984375 220.37890625,166.8671875 C219.515625,167.5546875 219.015625,168.42578125 218.83984375,169.48828125 C218.73046875,170.14453125 218.73046875,170.8203125 218.83203125,171.4765625 C219.0859375,173.08203125 219.9140625,174.25390625 221.4921875,174.80859375 C222.69140625,175.234375 223.921875,175.28515625 225.16796875,175.11328125 C227.37109375,174.8125 229.13671875,173.625 230.8203125,172.28125 C231.10546875,172.0546875 231.16796875,171.78125 231.1640625,171.4453125 C231.15234375,170.375 231.16015625,169.30859375 231.16015625,168.23828125 M231.1640625,175.96484375 C230.578125,176.2421875 230.23828125,176.55078125 229.8828125,176.83203125 C228.4140625,178 226.7890625,178.8828125 224.94140625,179.24609375 C222.10546875,179.8046875 219.41796875,179.5078125 217.0625,177.62890625 C215.9453125,176.73828125 215.1796875,175.59765625 214.66015625,174.28515625 C213.80859375,172.140625 213.75390625,169.94921875 214.39453125,167.7421875 C215.0546875,165.453125 216.578125,163.90625 218.6796875,162.89453125 C220.51953125,162.00390625 222.48046875,161.53515625 224.5,161.29296875 C226.48046875,161.0546875 228.4609375,160.8359375 230.453125,160.7578125 C231.11328125,160.73046875 231.1484375,160.68359375 231.16015625,160.05078125 C231.16796875,159.47265625 231.1875,158.890625 231.06640625,158.3203125 C230.734375,156.73828125 229.7890625,155.69140625 228.24609375,155.21875 C226.90625,154.80078125 225.51171875,154.71484375 224.12890625,154.78515625 C221.6875,154.91015625 219.33984375,155.5078125 217.0703125,156.41796875 C216.9609375,156.4609375 216.85546875,156.50390625 216.7421875,156.53515625 C216.30859375,156.66015625 216.21875,156.6171875 216.21484375,156.171875 C216.19921875,154.92578125 216.22265625,153.6796875 216.19921875,152.4375 C216.19140625,152.02734375 216.39453125,151.87109375 216.73828125,151.79296875 C218.23046875,151.4375 219.7265625,151.125 221.2421875,150.90625 C222.96875,150.65625 224.703125,150.6484375 226.4375,150.7421875 C228.37890625,150.84765625 230.28125,151.15234375 232.0078125,152.1640625 C234.07421875,153.37109375 235.20703125,155.1953125 235.62109375,157.5078125 C235.765625,158.3046875 235.8203125,159.109375 235.8203125,159.92578125 C235.8125,165.85546875 235.8125,171.78515625 235.8125,177.71484375 C235.8125,177.88671875 235.8046875,178.0625 235.8125,178.234375 C235.828125,178.57421875 235.66015625,178.69140625 235.33984375,178.6875 C234.09375,178.68359375 232.8515625,178.68359375 231.609375,178.6875 C231.265625,178.69140625 231.16015625,178.51171875 231.16015625,178.203125 C231.16796875,177.51171875 231.1640625,176.8203125 231.1640625,175.96484375 " id="svg_17"/>
        <path d="M309.41015625,164.97265625 C309.3671875,166.89453125 309.5546875,168.73046875 310.171875,170.49609375 C311.17578125,173.3515625 313.02734375,175.1875 316.1953125,175.43359375 C318.55859375,175.6171875 320.59375,174.984375 322.15234375,173.12109375 C322.890625,172.24609375 323.359375,171.22265625 323.66015625,170.125 C324.50390625,167.05859375 324.484375,163.96484375 323.9140625,160.86328125 C323.67578125,159.57421875 323.20703125,158.35546875 322.44921875,157.27734375 C321.2734375,155.60546875 319.609375,154.7578125 317.609375,154.60546875 C314.9609375,154.40234375 312.6953125,155.171875 311.12890625,157.45703125 C310.55078125,158.30078125 310.18359375,159.2421875 309.9375,160.2265625 C309.5390625,161.8046875 309.359375,163.40625 309.41015625,164.97265625 M329.0546875,164.8125 C329.08984375,167.5 328.80859375,169.9296875 327.84765625,172.234375 C326.08203125,176.47265625 322.9453125,178.89453125 318.33984375,179.390625 C316.10546875,179.62890625 313.9453125,179.3984375 311.8828125,178.54296875 C308.84375,177.28515625 306.90625,174.94140625 305.76171875,171.92578125 C304.734375,169.20703125 304.45703125,166.3828125 304.671875,163.4921875 C304.78125,161.984375 304.96484375,160.5 305.42578125,159.0625 C306.8359375,154.671875 309.64453125,151.7265625 314.26953125,150.8359375 C317.9765625,150.125 321.47265625,150.68359375 324.484375,153.14453125 C326.62890625,154.890625 327.8515625,157.21484375 328.50390625,159.8671875 C328.921875,161.55859375 329.1015625,163.28125 329.0546875,164.8125 " id="svg_18"/>
        <path d="M49.5625,164.8515625 C49.62109375,163.5390625 49.4921875,162.12890625 49.18359375,160.7421875 C48.484375,157.59765625 46.78125,154.9453125 42.87109375,154.609375 C40.7109375,154.421875 38.74609375,154.921875 37.171875,156.546875 C36.0859375,157.66796875 35.5,159.03515625 35.16015625,160.515625 C34.68359375,162.609375 34.59375,164.73828125 34.76953125,166.87890625 C34.87890625,168.15234375 35.07421875,169.40234375 35.49609375,170.60546875 C37,174.91796875 40.671875,176.1328125 44.33984375,175.1640625 C46.55859375,174.58203125 47.89453125,173 48.69140625,170.91796875 C49.421875,169 49.609375,166.99609375 49.5625,164.8515625 M54.40625,165.08203125 C54.3359375,167.4453125 54.109375,169.796875 53.2265625,172.03515625 C51.640625,176.06640625 48.74609375,178.5625 44.453125,179.296875 C41.9921875,179.71875 39.546875,179.53125 37.21875,178.55859375 C34.125,177.265625 32.16796875,174.87890625 31.00390625,171.8046875 C30.2578125,169.84375 29.9609375,167.79296875 29.921875,165.6953125 C29.875,163.19140625 30.0703125,160.72265625 30.9609375,158.36328125 C32.50390625,154.2734375 35.32421875,151.59765625 39.69921875,150.8046875 C43.08984375,150.1875 46.33203125,150.64453125 49.203125,152.69921875 C51.55859375,154.3828125 52.9609375,156.73046875 53.70703125,159.49609375 C54.19921875,161.3203125 54.359375,163.1875 54.40625,165.08203125 " id="svg_19"/>
        <path d="M544.45703125,155.07421875 C545.5078125,154.234375 546.35546875,153.4921875 547.30078125,152.875 C549.03125,151.7421875 550.8984375,151.03125 553.00390625,151.08984375 C554.35546875,151.125 554.35546875,151.1328125 554.35546875,152.50390625 C554.35546875,154.55859375 554.35546875,156.61328125 554.3515625,158.6640625 C554.34765625,159.35546875 554.2421875,159.4609375 553.6015625,159.3203125 C550.71875,158.6875 547.91796875,158.984375 545.1796875,160.046875 C544.47265625,160.3203125 544.4609375,160.3046875 544.4609375,161.08984375 C544.45703125,166.52734375 544.45703125,171.96875 544.45703125,177.40625 C544.45703125,177.578125 544.4609375,177.75390625 544.45703125,177.92578125 C544.4453125,178.67578125 544.4453125,178.68359375 543.68359375,178.6875 C541.37109375,178.69140625 539.0546875,178.6875 536.7421875,178.6875 C535.8359375,178.6875 535.83203125,178.68359375 535.83203125,177.796875 C535.828125,172.38671875 535.828125,166.9765625 535.828125,161.56640625 L535.828125,152.3671875 C535.828125,152.1640625 535.84375,151.9609375 535.828125,151.7578125 C535.79296875,151.33984375 535.9921875,151.203125 536.39453125,151.2109375 C537.63671875,151.22265625 538.8828125,151.21484375 540.125,151.21484375 C541.37109375,151.21484375 542.61328125,151.2265625 543.859375,151.20703125 C544.296875,151.19921875 544.4765625,151.33984375 544.46875,151.80078125 C544.44140625,152.83203125 544.45703125,153.86328125 544.45703125,155.07421875 " id="svg_20"/>
        <path d="M75.76171875,175.7578125 C75.17578125,176.2109375 74.77734375,176.53515625 74.36328125,176.83984375 C72.9140625,177.9140625 71.4140625,178.8671875 69.60546875,179.25 C67.95703125,179.6015625 66.33203125,179.55859375 64.72265625,179.08984375 C62.33984375,178.3984375 60.73828125,176.82421875 59.796875,174.55859375 C59.1796875,173.07421875 58.90234375,171.515625 58.90234375,169.90625 C58.89453125,164.296875 58.88671875,158.68359375 58.89453125,153.07421875 C58.89453125,152.53515625 58.64453125,151.87109375 59.04296875,151.4921875 C59.39453125,151.16015625 60.0390625,151.390625 60.55078125,151.37890625 C61.33203125,151.359375 62.11328125,151.3828125 62.89453125,151.3671875 C63.28515625,151.359375 63.5,151.4765625 63.46484375,151.90625 C63.4453125,152.13671875 63.46484375,152.37109375 63.46484375,152.6015625 C63.46875,157.6640625 63.44921875,162.7265625 63.4921875,167.78515625 C63.50390625,168.9375 63.515625,170.1015625 63.7734375,171.234375 C63.85546875,171.6015625 63.953125,171.96484375 64.0703125,172.3203125 C64.640625,174.02734375 65.8828125,174.859375 67.6328125,175.01953125 C69.2265625,175.16015625 70.734375,174.87109375 72.16796875,174.15234375 C73.20703125,173.62890625 74.16796875,172.99609375 75.10546875,172.31640625 C75.6015625,171.95703125 75.77734375,171.55078125 75.77734375,170.9375 C75.75390625,164.8046875 75.76171875,158.671875 75.765625,152.5390625 C75.765625,151.25 75.6171875,151.37890625 76.91796875,151.375 C77.87109375,151.3671875 78.82421875,151.36328125 79.78125,151.375 C80.38671875,151.3828125 80.390625,151.40234375 80.4140625,152.0234375 C80.41796875,152.16796875 80.4140625,152.3125 80.4140625,152.45703125 C80.4140625,160.84375 80.41796875,169.234375 80.4140625,177.62109375 C80.4140625,178.80078125 80.5078125,178.68359375 79.3359375,178.6875 C78.37890625,178.69140625 77.42578125,178.6953125 76.46875,178.6875 C75.77734375,178.6796875 75.76953125,178.671875 75.765625,177.94921875 C75.7578125,177.2890625 75.76171875,176.6328125 75.76171875,175.7578125 " id="svg_21"/>
        <path d="M16.63671875,171.26953125 C17.203125,169.73828125 17.76171875,168.22265625 18.31640625,166.70703125 C20.109375,161.82421875 21.89453125,156.94140625 23.6875,152.05859375 C23.93359375,151.37890625 23.9375,151.375 24.671875,151.375 C25.76953125,151.37109375 26.8671875,151.37109375 27.96484375,151.375 C28.19140625,151.375 28.4296875,151.32421875 28.6640625,151.484375 C28.6015625,152.0546875 28.3125,152.5625 28.1015625,153.09375 C23.55859375,164.68359375 19.0078125,176.2734375 14.45703125,187.86328125 C14.3828125,188.05078125 14.29296875,188.234375 14.22265625,188.421875 C14.12890625,188.66796875 13.95703125,188.7734375 13.69140625,188.7734375 C12.36328125,188.765625 11.03125,188.77734375 9.69921875,188.76171875 C9.25390625,188.7578125 9.1875,188.65234375 9.36328125,188.23046875 C9.8359375,187.0859375 10.3359375,185.9453125 10.82421875,184.8046875 C11.7734375,182.6015625 12.70703125,180.390625 13.67578125,178.19921875 C13.921875,177.63671875 13.95703125,177.15625 13.73046875,176.55859375 C10.63671875,168.5234375 7.578125,160.4765625 4.5078125,152.43359375 C4.0859375,151.3203125 4.07421875,151.37109375 5.2421875,151.375 C6.28515625,151.375 7.32421875,151.37109375 8.3671875,151.375 C9.08984375,151.37890625 9.1015625,151.37890625 9.35546875,152.0546875 C10.48828125,155.11328125 11.6171875,158.17578125 12.75,161.23828125 C13.9296875,164.4375 15.10546875,167.63671875 16.2890625,170.83203125 C16.34765625,170.984375 16.32421875,171.23828125 16.63671875,171.26953125 " id="svg_22"/>
        <path d="M212.5625,174.4296875 C212.5625,175.63671875 212.55859375,176.87890625 212.5625,178.1171875 C212.56640625,178.41015625 212.3828125,178.5234375 212.14453125,178.5859375 C209.71484375,179.203125 207.25390625,179.55078125 204.77734375,178.921875 C201.8515625,178.1796875 200.27734375,176.16015625 199.7109375,173.265625 C199.52734375,172.3515625 199.4921875,171.43359375 199.4921875,170.50390625 C199.4921875,165.7890625 199.4921875,161.07421875 199.4921875,156.359375 C199.4921875,156.12890625 199.484375,155.8984375 199.4921875,155.6640625 C199.5078125,155.328125 199.33984375,155.203125 199.01953125,155.2109375 C198.32421875,155.21484375 197.62890625,155.1953125 196.93359375,155.21484375 C196.51953125,155.2265625 196.37109375,155.06640625 196.37890625,154.66015625 C196.39453125,153.73046875 196.39453125,152.8046875 196.37890625,151.8828125 C196.375,151.5078125 196.5234375,151.36328125 196.89453125,151.37109375 C197.53125,151.3828125 198.16796875,151.3828125 198.80078125,151.37109375 C199.4609375,151.35546875 199.48828125,151.3359375 199.4921875,150.671875 C199.5,148.67578125 199.4921875,146.6796875 199.4921875,144.68359375 C199.4921875,144.48046875 199.5078125,144.27734375 199.4921875,144.078125 C199.453125,143.640625 199.61328125,143.4453125 200.078125,143.45703125 C201.20703125,143.4765625 202.3359375,143.453125 203.46484375,143.46484375 C204.05078125,143.47265625 204.06640625,143.48828125 204.0703125,144.1328125 C204.078125,146.04296875 204.0625,147.953125 204.07421875,149.86328125 C204.0859375,151.58203125 203.828125,151.36328125 205.6015625,151.37109375 C207.68359375,151.37890625 209.765625,151.3671875 211.84765625,151.375 C212.55078125,151.37890625 212.5546875,151.390625 212.5625,152.109375 C212.5703125,152.91796875 212.5703125,153.73046875 212.5625,154.5390625 C212.5546875,155.19140625 212.546875,155.203125 211.875,155.20703125 C209.9375,155.21484375 207.99609375,155.2109375 206.05859375,155.2109375 L205.01953125,155.2109375 C204.0078125,155.20703125 204.0703125,155.1640625 204.0703125,156.1484375 C204.0703125,160.6328125 204.06640625,165.1171875 204.078125,169.59765625 C204.08203125,170.37890625 204.09765625,171.16796875 204.23046875,171.93359375 C204.62109375,174.171875 205.6171875,174.97265625 207.7578125,175.18359375 C209.10546875,175.31640625 210.40234375,175.07421875 211.6640625,174.578125 C211.921875,174.4765625 212.16796875,174.26953125 212.5625,174.4296875 " id="svg_23"/>
        <path d="M356.59765625,159.65234375 L356.59765625,177.5234375 C356.59765625,177.72265625 356.58203125,177.92578125 356.6015625,178.12890625 C356.6328125,178.53515625 356.46484375,178.69921875 356.05078125,178.69140625 C354.8671875,178.67578125 353.6796875,178.67578125 352.4921875,178.69140625 C352.08203125,178.69921875 351.91015625,178.546875 351.9453125,178.13671875 C351.95703125,177.96484375 351.9453125,177.7890625 351.9453125,177.61328125 C351.9453125,165.64453125 351.9453125,153.67578125 351.94921875,141.703125 C351.94921875,140.53125 351.82421875,140.62890625 353.0078125,140.625 C354.01953125,140.62109375 355.03125,140.63671875 356.04296875,140.62109375 C356.453125,140.61328125 356.6328125,140.76171875 356.6015625,141.17578125 C356.58203125,141.37890625 356.59765625,141.58203125 356.59765625,141.78515625 zM356.59765625,159.65234375 " id="svg_24"/>
        <path d="M242.37109375,159.62890625 C242.37109375,153.61328125 242.37109375,147.59765625 242.37109375,141.578125 C242.37109375,140.62890625 242.375,140.625 243.30078125,140.625 C244.34375,140.625 245.3828125,140.6328125 246.42578125,140.62109375 C246.78125,140.6171875 246.9765625,140.73046875 246.94921875,141.11328125 C246.9375,141.2890625 246.94921875,141.4609375 246.94921875,141.63671875 C246.94921875,153.640625 246.94921875,165.64453125 246.94921875,177.6484375 C246.94921875,178.78515625 247.04296875,178.68359375 245.9375,178.6875 C245.01171875,178.69140625 244.0859375,178.69140625 243.16015625,178.6875 C242.38671875,178.68359375 242.3828125,178.67578125 242.37109375,177.9375 C242.3671875,177.58984375 242.37109375,177.2421875 242.37109375,176.8984375 zM242.37109375,159.62890625 " id="svg_25"/>
        <path d="M338.4453125,155.28515625 C339.08203125,154.78125 339.58984375,154.36328125 340.11328125,153.9609375 C341.0078125,153.27734375 341.9453125,152.66015625 342.96484375,152.16015625 C344.49609375,151.40625 346.11328125,151.2734375 347.78515625,151.41015625 C348.140625,151.4375 348.296875,151.57421875 348.29296875,151.94140625 C348.28515625,153.21484375 348.30078125,154.484375 348.2890625,155.7578125 C348.28125,156.265625 348.20703125,156.34765625 347.73046875,156.2421875 C346.98828125,156.078125 346.23828125,156.08984375 345.48828125,156.1015625 C342.83984375,156.140625 340.6484375,157.2734375 338.7109375,158.99609375 C338.44140625,159.234375 338.390625,159.515625 338.39453125,159.84765625 C338.40234375,161.203125 338.39453125,162.56640625 338.39453125,163.921875 L338.39453125,177.5390625 C338.39453125,177.76953125 338.38671875,178.00390625 338.39453125,178.234375 C338.41015625,178.5703125 338.24609375,178.69140625 337.92578125,178.6875 C336.6796875,178.68359375 335.4375,178.68359375 334.1953125,178.6875 C333.86328125,178.69140625 333.72265625,178.54296875 333.73828125,178.21875 C333.74609375,178.04296875 333.73828125,177.87109375 333.73828125,177.6953125 L333.73828125,152.37109375 C333.73828125,152.2265625 333.75,152.08203125 333.73828125,151.9375 C333.70703125,151.54296875 333.85546875,151.36328125 334.28125,151.3671875 C335.46484375,151.38671875 336.6484375,151.390625 337.8359375,151.3671875 C338.31640625,151.35546875 338.41015625,151.59375 338.40234375,152.00390625 C338.3828125,152.9296875 338.39453125,153.8515625 338.3984375,154.77734375 C338.3984375,154.890625 338.41796875,155 338.4453125,155.28515625 " id="svg_26"/>
        <path d="M91.64453125,155.31640625 C92.4140625,154.71484375 93.0390625,154.203125 93.68359375,153.72265625 C95.03515625,152.71484375 96.46875,151.859375 98.1484375,151.5078125 C99.12109375,151.3046875 100.10546875,151.3671875 101.08203125,151.421875 C101.37109375,151.4375 101.4921875,151.59765625 101.4921875,151.87109375 C101.48828125,153.203125 101.48828125,154.53125 101.4921875,155.859375 C101.4921875,156.39453125 101.1328125,156.28125 100.828125,156.23046875 C99.32421875,155.9765625 97.83203125,156.03125 96.3671875,156.453125 C94.66796875,156.94140625 93.20703125,157.85546875 91.9140625,159.046875 C91.70703125,159.234375 91.59765625,159.44921875 91.6015625,159.7265625 C91.6015625,159.9609375 91.59765625,160.19140625 91.59765625,160.421875 C91.59765625,166.1171875 91.59765625,171.80859375 91.59765625,177.50390625 C91.59765625,177.70703125 91.58203125,177.91015625 91.6015625,178.11328125 C91.6484375,178.58203125 91.41015625,178.69921875 90.984375,178.6953125 C89.859375,178.67578125 88.73046875,178.671875 87.6015625,178.6953125 C87.13671875,178.70703125 86.98046875,178.515625 87.01953125,178.08203125 C87.03515625,177.94140625 87.01953125,177.796875 87.01953125,177.6484375 C87.01953125,169.23828125 87.01953125,160.828125 87.0234375,152.41796875 C87.0234375,151.28515625 86.92578125,151.375 88.03515625,151.375 C88.9296875,151.37109375 89.828125,151.37109375 90.72265625,151.375 C91.58984375,151.37890625 91.59375,151.37890625 91.59765625,152.21484375 C91.6015625,153.0234375 91.59765625,153.83203125 91.6015625,154.640625 C91.6015625,154.80859375 91.62109375,154.97265625 91.64453125,155.31640625 " id="svg_27"/>
        <path d="M148.515625,164.94921875 L148.515625,152.5390625 C148.515625,152.3359375 148.53125,152.1328125 148.515625,151.93359375 C148.48046875,151.5234375 148.65234375,151.36328125 149.06640625,151.3671875 C150.25,151.38671875 151.4375,151.38671875 152.62109375,151.3671875 C153.03125,151.36328125 153.21484375,151.515625 153.17578125,151.92578125 C153.1640625,152.09765625 153.17578125,152.2734375 153.17578125,152.4453125 C153.17578125,160.8359375 153.17578125,169.22265625 153.17578125,177.61328125 C153.17578125,178.7890625 153.29296875,178.68359375 152.109375,178.6875 C151.125,178.69140625 150.140625,178.6953125 149.15625,178.68359375 C148.5390625,178.6796875 148.5234375,178.6640625 148.51953125,178.0546875 C148.51171875,176.63671875 148.515625,175.21875 148.515625,173.80078125 zM148.515625,164.94921875 " id="svg_28"/>
        <path d="M187.71875,165.02734375 L187.71875,152.53125 C187.71875,152.296875 187.7265625,152.06640625 187.71875,151.8359375 C187.703125,151.50390625 187.86328125,151.37109375 188.1875,151.375 C189.40234375,151.37890625 190.6171875,151.37890625 191.83203125,151.375 C192.16015625,151.375 192.3046875,151.5234375 192.29296875,151.84765625 C192.2890625,152.05078125 192.296875,152.25390625 192.296875,152.45703125 C192.296875,160.84375 192.296875,169.234375 192.296875,177.625 C192.296875,178.7890625 192.3828125,178.68359375 191.2109375,178.6875 C190.2578125,178.69140625 189.30078125,178.6953125 188.34765625,178.68359375 C187.73828125,178.67578125 187.72265625,178.6640625 187.71875,178.046875 C187.7109375,176.3671875 187.71875,174.6875 187.71875,173.01171875 zM187.71875,165.02734375 " id="svg_29"/>
        <path d="M399.92578125,171.72265625 C399.41796875,172.921875 398.98828125,173.953125 398.546875,174.984375 C396.859375,178.94140625 395.1484375,182.88671875 393.4921875,186.85546875 C393.19140625,187.578125 392.8203125,187.9140625 392.01953125,187.82421875 C391.390625,187.75390625 390.74609375,187.82421875 390.11328125,187.8046875 C389.5703125,187.7890625 389.5,187.70703125 389.62890625,187.171875 C389.8671875,186.19140625 390.14453125,185.21875 390.40625,184.24609375 C391.41796875,180.484375 392.4296875,176.72265625 393.44140625,172.96484375 C393.515625,172.68359375 393.59375,172.40625 393.66796875,172.12890625 C393.74609375,171.83984375 393.91796875,171.71484375 394.23046875,171.71875 C396.078125,171.7265625 397.92578125,171.72265625 399.92578125,171.72265625 " id="svg_30"/>
        <path d="M150.85546875,146.76171875 C150.16015625,146.76171875 149.46875,146.75 148.7734375,146.765625 C148.37890625,146.77734375 148.19140625,146.64453125 148.19921875,146.22265625 C148.2109375,145.0078125 148.2109375,143.79296875 148.19921875,142.58203125 C148.1953125,142.19140625 148.3125,142.00390625 148.7421875,142.0078125 C150.15625,142.02734375 151.57421875,142.01953125 152.98828125,142.01171875 C153.34375,142.0078125 153.51953125,142.12109375 153.515625,142.50390625 C153.50390625,143.74609375 153.5,144.9921875 153.51953125,146.23046875 C153.5234375,146.66796875 153.3203125,146.7734375 152.9375,146.765625 C152.2421875,146.75 151.55078125,146.76171875 150.85546875,146.76171875 " id="svg_31"/>
        <path d="M190.04296875,146.76171875 C189.34765625,146.76171875 188.65625,146.75 187.96484375,146.765625 C187.5859375,146.7734375 187.37890625,146.671875 187.38671875,146.234375 C187.40625,144.9921875 187.3984375,143.75390625 187.38671875,142.515625 C187.3828125,142.140625 187.53515625,142.0078125 187.8984375,142.01171875 C189.3125,142.01953125 190.7265625,142.01953125 192.13671875,142.01171875 C192.51953125,142.0078125 192.6328125,142.18359375 192.6328125,142.53515625 C192.62109375,143.77734375 192.62109375,145.015625 192.6328125,146.25390625 C192.6328125,146.625 192.48046875,146.76953125 192.1171875,146.76171875 C191.42578125,146.75 190.73046875,146.76171875 190.04296875,146.76171875 " id="svg_32"/>
    </g></g></svg>